<?xml version="1.0" encoding="UTF-8"?>
<svg id="Camada_2" data-name="Camada 2" xmlns="http://www.w3.org/2000/svg" xmlns:xlink="http://www.w3.org/1999/xlink" viewBox="0 0 365.66 140.99">
  <defs>
    <style>
      .cls-1 {
        fill: url(#Gradiente_sem_nome_3);
      }

      .cls-2 {
        fill: #fff;
      }
    </style>
    <linearGradient id="Gradiente_sem_nome_3" data-name="Gradiente sem nome 3" x1="106.63" y1="315.15" x2="106.63" y2="174.16" gradientTransform="translate(-39.93 315.15) scale(1 -1)" gradientUnits="userSpaceOnUse">
      <stop offset="0" stop-color="#82bb48"/>
      <stop offset="1" stop-color="#21a750"/>
    </linearGradient>
  </defs>
  <g id="Camada_1-2" data-name="Camada 1">
    <path class="cls-1" d="M85.5,140.99c-4.5,0-8.88-1.51-12.43-4.28l-.53-.41c-6.85-5.34-9.52-14.47-6.63-22.66l8.75-24.73c2.6-7.34-1.24-15.39-8.57-17.99-4.17-1.48-8.8-.91-12.49,1.53l-22.04,14.5c-9.21,6.29-21.77,3.92-28.06-5.29-6.29-9.21-3.92-21.77,5.29-28.06.45-.31.92-.6,1.39-.87L92.65,3.78c12.82-7.6,29.37-3.38,36.97,9.44,3.84,6.47,4.8,14.26,2.65,21.47l-2.97,9.97c-.52,1.6-2.24,2.48-3.84,1.96-1.55-.5-2.43-2.14-2-3.71l2.98-9.97c3.3-11.05-2.99-22.68-14.04-25.98-5.59-1.67-11.62-.92-16.63,2.05L13.32,57.97c-6.69,3.97-8.9,12.6-4.93,19.29.9,1.51,2.07,2.84,3.45,3.92,4.77,3.73,11.38,4,16.44.66l21.98-14.5c9.33-6.11,21.85-3.49,27.95,5.84,3.44,5.26,4.24,11.82,2.16,17.74l-8.74,24.73c-2.02,5.73-.14,12.11,4.68,15.83l.53.41c6.13,4.79,14.99,3.7,19.78-2.43,1.08-1.39,1.9-2.97,2.4-4.66l3.16-10.58c.45-1.62,2.13-2.58,3.75-2.13,1.62.45,2.58,2.13,2.13,3.75-.01.04-.02.09-.04.13l-3.16,10.58c-2.56,8.55-10.42,14.42-19.35,14.42h0Z"/>
    <path class="cls-2" d="M138.9,89.29v.18c0,9.49-6.78,15.26-18.02,15.26-5.3-.03-10.5-1.36-15.16-3.88-1.41-.75-2.44-2.06-2.85-3.6-.4-1.51-.13-3.11.73-4.4,1.54-2.4,4.65-3.23,7.18-1.94,3.19,1.84,6.77,2.87,10.45,3.01,3.32,0,5.14-1.1,5.14-3.08v-.16c0-2.22-3.32-3.21-7.52-4.46l-1.78-.53c-12.36-3.63-14.04-9.23-14.04-14.22v-.18c0-8.97,6.94-15,17.25-15,4.26.07,8.45.99,12.35,2.71,2.84,1.2,4.16,4.48,2.96,7.32-.07.17-.16.35-.25.51-1.38,2.57-4.51,3.63-7.17,2.44-2.54-1.23-5.31-1.95-8.13-2.1-2.71,0-4.44,1.08-4.44,2.82v.18c0,2.06,3.56,3.27,7.68,4.66l1.45.49c6.84,2.22,14.18,5.38,14.18,13.97Z"/>
    <path class="cls-2" d="M187.78,66.4l-14.81,39.44c-3.58,9.49-7.43,13.12-15.39,13.12-2.06.02-4.11-.24-6.1-.76-2.87-.86-4.5-3.88-3.64-6.75.81-2.72,3.58-4.35,6.35-3.74.57.14,1.16.21,1.75.22h0c2.18,0,3.95-1.75,3.96-3.93,0-.51-.1-1.02-.29-1.49l-14.05-35.97c-1.28-3.28.34-6.97,3.62-8.25.74-.29,1.52-.44,2.31-.44h.2c2.74,0,5.17,1.75,6.03,4.35l5.33,15.79c.71,2.13,3.02,3.28,5.15,2.57,1.21-.41,2.16-1.36,2.57-2.57l5.04-15.72c1.03-3.36,4.59-5.26,7.95-4.23,3.36,1.03,5.26,4.59,4.23,7.95-.05.16-.1.32-.16.47l-.03-.05Z"/>
    <path class="cls-2" d="M239.99,74.34v23.72c.17,3.67-2.68,6.78-6.35,6.95-3.67.17-6.78-2.68-6.95-6.35,0-.2,0-.4,0-.6v-19.51c0-6.3-2.98-9.49-8.06-9.49s-8.31,3.24-8.31,9.49v19.51c0,3.67-2.98,6.65-6.65,6.65s-6.65-2.98-6.65-6.65h0v-33.61c0-3.67,2.98-6.65,6.66-6.65,2.12,0,4.11,1.01,5.36,2.72,1.09,1.32,3.04,1.52,4.37.43.04-.03.08-.07.12-.1,2.91-2.52,6.64-3.91,10.49-3.92,10.12,0,15.99,6.64,15.98,17.41Z"/>
    <path class="cls-2" d="M292.15,66.54l-13.08,33.47c-1.81,4.61-7.01,6.89-11.62,5.09-2.33-.91-4.17-2.76-5.09-5.09l-13.08-33.47c-1.29-3.31.35-7.03,3.65-8.32.74-.29,1.54-.44,2.34-.44h.26c2.77,0,5.22,1.77,6.1,4.39l4.72,14.23c1.96,5.84,7.01,5.83,8.97,0l4.76-14.24c1.13-3.36,4.77-5.17,8.14-4.04,3.36,1.13,5.17,4.77,4.04,8.14-.03.1-.07.19-.1.28h0Z"/>
    <path class="cls-2" d="M314.68,65.88v32.19c.17,3.67-2.68,6.78-6.35,6.95-3.67.17-6.78-2.68-6.95-6.35,0-.2,0-.4,0-.6v-32.19c-.17-3.67,2.68-6.78,6.35-6.95,3.67-.17,6.78,2.68,6.95,6.35,0,.2,0,.4,0,.6ZM301.41,47.27c0-3.66,2.97-6.63,6.63-6.63s6.63,2.97,6.63,6.63-2.97,6.63-6.63,6.63c-3.66,0-6.63-2.97-6.63-6.63h0Z"/>
    <path class="cls-2" d="M322.5,90.38v-.18c0-10.25,7.79-14.91,18.9-14.91,2.06,0,4.11.17,6.14.51,3.52.6,5.75-2.51,3.52-4.95-1.72-1.9-4.39-3.01-8.25-3.01-2.7-.02-5.38.31-8,.96-2.95.71-5.92-1.11-6.63-4.07-.67-2.78.9-5.6,3.61-6.5,4.2-1.25,8.56-1.85,12.94-1.78,7.26,0,12.51,1.94,15.84,5.26,3.33,3.32,5.08,8.67,5.08,14.91v21.26c0,3.29-2.67,5.95-5.96,5.95h-1.83c-1.75.07-3.39-.87-4.21-2.41-.62-.99-1.92-1.29-2.91-.68-.09.06-.18.12-.26.19-3.4,2.59-7.6,3.92-11.87,3.78-8.89,0-16.11-5.08-16.11-14.35ZM345.01,83.19c-5.42,0-8.75,2.05-8.75,6.17s2.86,6.04,6.91,5.58c5.12-.57,8.04-3.58,8.67-7.09.58-3.2-2.85-4.66-6.83-4.66h0Z"/>
  </g>
</svg>