<?xml version="1.0" encoding="utf-8"?>
<!-- Generator: Adobe Illustrator 28.2.0, SVG Export Plug-In . SVG Version: 6.00 Build 0)  -->
<svg version="1.1" id="Camada_1" xmlns="http://www.w3.org/2000/svg" xmlns:xlink="http://www.w3.org/1999/xlink" x="0px" y="0px"
	 viewBox="0 0 566.9 237.5" style="enable-background:new 0 0 566.9 237.5;" xml:space="preserve">
<style type="text/css">
	.st0{fill:url(#SVGID_1_);}
	.st1{fill:#FFFFFF;}
</style>
<g id="Grid">
</g>
<g>
	<g>
		<linearGradient id="SVGID_1_" gradientUnits="userSpaceOnUse" x1="114.8452" y1="17.9759" x2="114.8452" y2="218.9661">
			<stop  offset="0" style="stop-color:#7FC344"/>
			<stop  offset="1" style="stop-color:#00AE4D"/>
		</linearGradient>
		<path class="st0" d="M141.4,219c-6.3,0-12.6-2.1-17.7-6.1l-0.8-0.6c-9.8-7.6-13.6-20.6-9.4-32.3l12.5-35.2
			c3.5-10-1.1-18.2-6.6-22.5c-5.5-4.3-14.5-6.8-23.4-0.9l-31.3,20.7c-10.3,6.8-23.8,6.3-33.6-1.3c-7.5-5.9-11.6-15-11-24.5
			c0.6-9.5,5.8-18.1,14-22.9l117.5-69.8c13.7-8.1,30.7-7.1,43.3,2.7c12.6,9.8,17.8,26,13.2,41.3l-4.2,14.2c-0.7,2.3-3.1,3.6-5.4,2.9
			c-2.3-0.7-3.6-3.1-2.9-5.4l4.2-14.2c3.5-11.8-0.5-24.4-10.2-32c-9.7-7.6-22.9-8.4-33.5-2.1L38.5,100.6c-5.8,3.4-9.4,9.3-9.8,16
			c-0.4,6.7,2.4,13,7.7,17.1c6.8,5.3,16.2,5.7,23.4,0.9L91.2,114c10.5-6.9,23.7-6.4,33.6,1.4c9.9,7.7,13.6,20.4,9.4,32.3l-12.5,35.2
			c-2.9,8.2-0.2,17.2,6.6,22.5l0.8,0.6c5.3,4.2,12.1,5.4,18.5,3.3c6.4-2.1,11.2-6.9,13.1-13.4l4.5-15.1c0.7-2.3,3.1-3.6,5.4-2.9
			c2.3,0.7,3.6,3.1,2.9,5.4l-4.5,15.1c-2.7,9.1-9.7,16.3-18.8,19.2C147.3,218.5,144.3,219,141.4,219z"/>
	</g>
	<g>
		<g>
			<path class="st1" d="M217.5,145.3v0.2c0,13.6-9.6,21.8-25.7,21.8c-7.4,0-14.9-1.9-21.6-5.5c-2-1.1-3.5-2.9-4-5.1
				c-0.6-2.2-0.2-4.4,1-6.3c2.2-3.4,6.7-4.6,10.2-2.8c5.2,2.8,10.4,4.3,14.9,4.3c4.7,0,7.3-1.6,7.3-4.4v-0.2c0-3.2-4.7-4.6-10.7-6.3
				c-0.8-0.2-1.7-0.5-2.5-0.8c-17.6-5.2-20-13.1-20-20.3v-0.2c0-12.8,9.9-21.4,24.6-21.4c5.8,0,11.9,1.3,17.6,3.8
				c2,0.9,3.6,2.6,4.4,4.7c0.7,2.1,0.5,4.5-0.6,6.4c-2,3.7-6.4,5.1-10.2,3.5c-4.4-2-8.4-3-11.5-3c-3.9,0-6.3,1.5-6.3,4v0.2
				c0,2.9,5.1,4.7,11,6.7l2.1,0.7C207,128.5,217.5,133.1,217.5,145.3z"/>
		</g>
		<g>
			<path class="st1" d="M287.2,112.7l-21.1,56.2c-5.1,13.6-10.6,18.7-22,18.7c-3.2,0-6.1-0.4-8.7-1.1c-4.6-1.2-6.8-6.4-4.8-10.7
				c1.5-3.3,5.1-5.1,8.7-4.3c0.9,0.2,1.7,0.3,2.5,0.3h0.1c4,0,6.7-4,5.2-7.7L227,112.8c-2.3-5.9,2.1-12.4,8.4-12.4h0.3
				c3.9,0,7.4,2.5,8.6,6.2l7.5,22.6c1.8,5.3,9.3,5.3,11-0.1l7.2-22.4c1.2-3.8,4.7-6.3,8.6-6.3C285,100.4,289.4,106.7,287.2,112.7z"
				/>
		</g>
		<g>
			<path class="st1" d="M361.6,124v33.8c0,5.2-4.2,9.5-9.5,9.5c-5.2,0-9.5-4.2-9.5-9.5V130c0-9-4.2-13.6-11.5-13.6
				c-7.2,0-11.9,4.6-11.9,13.6v27.8c0,5.2-4.2,9.5-9.5,9.5c-5.2,0-9.5-4.2-9.5-9.5v-47.9c0-5.2,4.2-9.5,9.5-9.5
				c3.1,0,5.9,1.5,7.7,3.9c1.5,2,4.5,2.1,6.4,0.5c3.2-2.8,8.2-5.6,15-5.6C353.2,99.2,361.6,108.6,361.6,124z"/>
		</g>
		<g>
			<path class="st1" d="M435.9,112.9l-18.6,47.7c-1.9,4.9-6.6,8.1-11.9,8.1c-5.3,0-10-3.2-11.9-8.1l-18.6-47.7
				c-2.4-6,2.1-12.5,8.5-12.5h0.4c3.9,0,7.4,2.5,8.7,6.3l6.7,20.3c2.8,8.3,10,8.3,12.8,0l6.8-20.3c1.3-3.7,4.7-6.2,8.7-6.2
				C433.8,100.4,438.3,106.9,435.9,112.9z"/>
		</g>
		<g>
			<path class="st1" d="M468,111.9v45.9c0,5.2-4.2,9.5-9.5,9.5c-5.2,0-9.5-4.2-9.5-9.5v-45.9c0-5.2,4.2-9.5,9.5-9.5
				C463.8,102.4,468,106.7,468,111.9z M449.1,85.4c0-5.2,4.2-9.4,9.4-9.4s9.4,4.2,9.4,9.4c0,5.2-4.2,9.4-9.4,9.4
				S449.1,90.6,449.1,85.4z"/>
		</g>
		<g>
			<path class="st1" d="M479.2,146.8v-0.3c0-14.6,11.1-21.3,26.9-21.3c3.3,0,6.1,0.3,8.7,0.7c5,0.8,8.2-3.6,5-7.1
				c-2.5-2.7-6.3-4.3-11.8-4.3c-4.3,0-7.9,0.5-11.4,1.4c-4,1-8.2-1.2-9.5-5.1c-1.4-4.2,1-8.7,5.2-10c5.2-1.6,10.9-2.5,18.4-2.5
				c10.4,0,17.8,2.7,22.6,7.5c5,5,7.2,12.4,7.2,21.3v30.3c0,4.7-3.8,8.5-8.5,8.5h-2.6c-3.2,0-5-1.7-6-3.4c-0.9-1.6-3.1-1.9-4.5-0.7
				c-4.2,3.3-9.7,5.4-16.9,5.4C489.5,167.3,479.2,160.1,479.2,146.8z M511.2,136.6c-7.7,0-12.5,2.9-12.5,8.8s4.1,8.6,9.9,8
				c7.3-0.8,11.4-5.1,12.3-10.1C521.8,138.7,516.9,136.6,511.2,136.6z"/>
		</g>
	</g>
</g>
</svg>
