<svg width="1126" height="1196" viewBox="0 0 1126 1196" fill="none" xmlns="http://www.w3.org/2000/svg">
<path d="M404.401 1196C442.509 1196 479.213 1183.24 509.298 1159.52L513.71 1156.34C571.474 1111.09 593.938 1033.75 569.669 964.191L495.659 754.506C473.597 692.118 506.289 623.951 567.864 602.026C603.164 589.668 642.275 594.451 673.162 615.181L859.089 738.161C936.91 791.38 1042.81 771.448 1096.36 693.314C1149.31 615.181 1129.46 508.744 1051.63 455.127C1047.62 452.535 1044.01 449.944 1040 447.752L344.23 32.169C235.923 -32.4107 96.1271 3.2676 31.9452 112.096C-0.346317 167.109 -8.77015 233.283 9.48157 294.076L34.5526 378.787C38.9651 392.341 53.406 399.915 66.8441 395.53C79.8811 391.145 87.5027 377.392 83.8925 364.237L58.8214 279.526C30.9424 185.845 83.8924 86.9821 177.157 59.2766C224.29 45.1249 275.235 51.7024 317.755 76.8168L1014.33 491.802C1071.09 525.287 1089.54 598.637 1056.05 655.643C1048.43 668.399 1038.6 679.761 1026.96 688.929C986.651 720.621 930.692 722.814 888.172 694.311L702.646 571.33C623.823 519.507 518.123 541.831 466.577 620.961C437.494 665.409 430.675 721.219 448.325 771.647L522.134 981.332C539.183 1029.77 523.137 1084.18 482.622 1115.47L478.21 1118.66C426.263 1159.13 351.451 1149.96 311.136 1097.93C302.111 1086.17 295.091 1072.82 290.879 1058.47L264.404 968.775C260.794 954.822 246.553 946.85 232.714 950.637C218.875 954.225 210.852 968.576 214.462 982.329V983.325L240.937 1073.02C262.398 1145.57 328.786 1195.2 404.401 1195.2V1196Z" fill="#2AC15F"/>
</svg>
