<?xml version="1.0" encoding="UTF-8"?>
<svg id="Camada_1" data-name="Camada 1" xmlns="http://www.w3.org/2000/svg" xmlns:xlink="http://www.w3.org/1999/xlink" viewBox="0 0 1000 1000">
  <defs>
    <style>
      .cls-1 {
        fill: #fff;
      }

      .cls-2 {
        clip-path: url(#clippath);
      }
    </style>
    <clipPath id="clippath">
      <path class="cls-1" d="M200.85,548.94c-.91-.69-1.81-1.39-2.69-2.12l-2.81-2.32c-11.15-9.24-19.19-20.9-23.69-33.89-3.4-10.02-4.7-20.81-3.68-31.9,2.36-25.63,16.61-47.49,39.1-59.98l405.53-225.58c.51-.22,1.02-.47,1.51-.74l49.55-27.49c36.07-20.01,78.95-18.95,113.44,1.77.56.34,1.12.7,1.68,1.05.61.39,1.23.76,1.84,1.16,3.61,2.36,7.13,4.94,10.52,7.74,36.38,30.06,50.34,78.44,35.58,123.24l-17.73,53.82c-.19.58-.34,1.15-.47,1.73l-145.65,440.44c-8.06,24.43-26.87,42.52-51.61,49.64-12.3,3.54-24.8,4-36.7,1.56-11.9-2.51-23.19-7.93-33.07-16.09l-2.81-2.32c-.67-.55-1.33-1.12-1.97-1.7-22.05-21.28-29.47-53.79-18.37-82.74l51.4-133.87c17.22-44.87,4.41-93.63-32.6-124.23-.52-.43-1.05-.83-1.57-1.24-.24-.21-.47-.42-.72-.62-36.99-30.63-87.28-34.09-128.14-8.77l-121.88,75.55c-12.45,7.71-26.45,11.51-40.4,11.51-15.32,0-30.57-4.58-43.63-13.6M647.28,135.85l-400.54,222.8c-1.1.34-2.18.78-3.22,1.36l-52.58,29.17c-31.79,17.62-52.79,49.76-56.17,85.95-.31,3.39-.47,6.77-.47,10.14v.1c0,7.99.88,15.9,2.57,23.58.48,2.17,1.04,4.31,1.64,6.44.02.07.04.14.06.2.53,1.84,1.09,3.67,1.72,5.48.16.48.33.96.5,1.45.49,1.36,1,2.7,1.54,4.04.51,1.27,1.05,2.52,1.6,3.77.03.06.05.11.08.17,6.81,15.28,17.06,29.04,30.35,40.02,2.43,2.01,4.93,3.89,7.48,5.65,36.11,26.68,84.92,28.86,123.41,4.95l121.31-75.43c33.67-20.92,67.09-11.5,87.81,4.7,20.24,17.15,36.47,48.61,22,86.19l-51.39,133.29c-16.55,42.96-4.65,91.35,29.54,121.76,1.74,1.65,3.53,3.26,5.39,4.8,12.74,10.56,27.47,17.89,43.03,21.85,1.25.32,2.5.62,3.76.9.47.1.94.21,1.42.31,6.33,1.31,12.77,2.09,19.26,2.27,11.21.32,22.55-1.08,33.62-4.27,34.92-10.09,62.56-36.73,73.92-71.26l18.81-57.11c.37-1.11.61-2.24.73-3.36l143.93-435.25c5.05-15.26,7.51-30.84,7.55-46.22v-.64c-.09-42.74-18.94-83.93-53.33-112.42-4.47-3.7-9.1-7.1-13.86-10.2-.87-.57-1.76-1.1-2.64-1.65-.65-.41-1.3-.83-1.96-1.22-23.1-13.91-49.12-20.99-75.31-20.99-24.44,0-49.03,6.16-71.56,18.7"/>
    </clipPath>
  </defs>
  <path class="cls-1" d="M200.85,548.94c-.91-.69-1.81-1.39-2.69-2.12l-2.81-2.32c-11.15-9.24-19.19-20.9-23.69-33.89-3.4-10.02-4.7-20.81-3.68-31.9,2.36-25.63,16.61-47.49,39.1-59.98l405.53-225.58c.51-.22,1.02-.47,1.51-.74l49.55-27.49c36.07-20.01,78.95-18.95,113.44,1.77.56.34,1.12.7,1.68,1.05.61.39,1.23.76,1.84,1.16,3.61,2.36,7.13,4.94,10.52,7.74,36.38,30.06,50.34,78.44,35.58,123.24l-17.73,53.82c-.19.58-.34,1.15-.47,1.73l-145.65,440.44c-8.06,24.43-26.87,42.52-51.61,49.64-12.3,3.54-24.8,4-36.7,1.56-11.9-2.51-23.19-7.93-33.07-16.09l-2.81-2.32c-.67-.55-1.33-1.12-1.97-1.7-22.05-21.28-29.47-53.79-18.37-82.74l51.4-133.87c17.22-44.87,4.41-93.63-32.6-124.23-.52-.43-1.05-.83-1.57-1.24-.24-.21-.47-.42-.72-.62-36.99-30.63-87.28-34.09-128.14-8.77l-121.88,75.55c-12.45,7.71-26.45,11.51-40.4,11.51-15.32,0-30.57-4.58-43.63-13.6M647.28,135.85l-400.54,222.8c-1.1.34-2.18.78-3.22,1.36l-52.58,29.17c-31.79,17.62-52.79,49.76-56.17,85.95-.31,3.39-.47,6.77-.47,10.14v.1c0,7.99.88,15.9,2.57,23.58.48,2.17,1.04,4.31,1.64,6.44.02.07.04.14.06.2.53,1.84,1.09,3.67,1.72,5.48.16.48.33.96.5,1.45.49,1.36,1,2.7,1.54,4.04.51,1.27,1.05,2.52,1.6,3.77.03.06.05.11.08.17,6.81,15.28,17.06,29.04,30.35,40.02,2.43,2.01,4.93,3.89,7.48,5.65,36.11,26.68,84.92,28.86,123.41,4.95l121.31-75.43c33.67-20.92,67.09-11.5,87.81,4.7,20.24,17.15,36.47,48.61,22,86.19l-51.39,133.29c-16.55,42.96-4.65,91.35,29.54,121.76,1.74,1.65,3.53,3.26,5.39,4.8,12.74,10.56,27.47,17.89,43.03,21.85,1.25.32,2.5.62,3.76.9.47.1.94.21,1.42.31,6.33,1.31,12.77,2.09,19.26,2.27,11.21.32,22.55-1.08,33.62-4.27,34.92-10.09,62.56-36.73,73.92-71.26l18.81-57.11c.37-1.11.61-2.24.73-3.36l143.93-435.25c5.05-15.26,7.51-30.84,7.55-46.22v-.64c-.09-42.74-18.94-83.93-53.33-112.42-4.47-3.7-9.1-7.1-13.86-10.2-.87-.57-1.76-1.1-2.64-1.65-.65-.41-1.3-.83-1.96-1.22-23.1-13.91-49.12-20.99-75.31-20.99-24.44,0-49.03,6.16-71.56,18.7"/>
  <g class="cls-2">
    <rect class="cls-1" x="134.3" y="117.15" width="731.64" height="764.93"/>
  </g>
</svg>