<svg width="128" height="57" viewBox="0 0 128 57" fill="none" xmlns="http://www.w3.org/2000/svg">
<path d="M29.9507 52.11C28.4 52.11 26.8622 51.5681 25.5958 50.5386L25.4149 50.3895C23.0113 48.4252 22.0809 45.0791 23.1018 42.0716L26.1644 32.9951C27.0302 30.4076 25.906 28.3078 24.5491 27.1969C23.1922 26.086 20.9825 25.4493 18.7857 26.9531L11.0967 32.2771C8.551 34.0382 5.24283 33.8892 2.85216 31.9384C1.00423 30.4347 -0.00372425 28.0639 0.151346 25.6254C0.306417 23.187 1.58575 20.9788 3.60167 19.7324L32.4448 1.76899C35.8176 -0.330808 39.9916 -0.0463193 43.08 2.47344C46.1685 5.00675 47.4479 9.17926 46.3236 13.1079L45.2769 16.7656C45.1089 17.3617 44.5144 17.6868 43.9459 17.5243C43.3773 17.3482 43.0542 16.725 43.2222 16.1289L44.2689 12.4712C45.1347 9.4231 44.1526 6.19889 41.7619 4.23456C39.3713 2.28378 36.1406 2.06703 33.5303 3.67913L4.67424 21.6561C3.25276 22.5367 2.37402 24.0404 2.27064 25.7745C2.16726 27.5085 2.85216 29.1206 4.15734 30.1773C5.82434 31.5455 8.13748 31.6403 9.90787 30.4211L17.5968 25.0971C20.1813 23.3089 23.4119 23.4579 25.8414 25.4493C28.2708 27.4407 29.1754 30.7056 28.1545 33.7537L25.0919 42.8303C24.3811 44.9301 25.0402 47.2602 26.7072 48.642L26.8881 48.791C28.1933 49.8612 29.8474 50.1728 31.4239 49.6444C33.0005 49.1161 34.1764 47.8562 34.6416 46.2035L35.753 42.3155C35.921 41.7194 36.5154 41.3943 37.084 41.5568C37.6526 41.7329 37.9756 42.3561 37.8076 42.9522L36.6963 46.8402C36.0243 49.1838 34.3056 51.0398 32.083 51.7849C31.3981 52.0016 30.6744 52.11 29.9507 52.11Z" fill="url(#paint0_linear_2998_12869)"/>
<path d="M48.6367 33.1441V33.2118C48.6367 36.7205 46.2848 38.8068 42.3305 38.8068C40.5084 38.8068 38.6734 38.3191 37.0193 37.3843C36.5282 37.1134 36.1664 36.6257 36.0243 36.0567C35.8821 35.5013 35.9726 34.9187 36.2827 34.4446C36.8255 33.564 37.9368 33.2524 38.8026 33.7401C40.0819 34.4581 41.3484 34.8375 42.4597 34.8375C43.6227 34.8375 44.2559 34.431 44.2559 33.7131V33.6453C44.2559 32.8325 43.0929 32.4667 41.6197 32.0061C41.413 31.9384 41.2062 31.8842 40.9994 31.8165C36.6704 30.4888 36.0889 28.4297 36.0889 26.6008V26.5331C36.0889 23.2411 38.5183 21.033 42.1237 21.033C43.5452 21.033 45.0313 21.3716 46.4398 22.0084C46.9438 22.2387 47.3315 22.6722 47.5124 23.2276C47.6933 23.783 47.6416 24.3791 47.3703 24.8939C46.8663 25.8422 45.7937 26.2215 44.8633 25.788C43.7778 25.2868 42.7957 25.0158 42.0332 25.0158C41.077 25.0158 40.4825 25.4087 40.4825 26.0454V26.1131C40.4825 26.8718 41.7231 27.3188 43.1704 27.8201L43.6744 27.9962C46.0651 28.8361 48.6367 30.0011 48.6367 33.1441Z" fill="white"/>
<path d="M65.7461 24.7449L60.5642 39.2267C59.3107 42.7219 57.9668 44.0495 55.1755 44.0495C54.3872 44.0495 53.6894 43.9546 53.0433 43.765C51.919 43.4399 51.3633 42.1258 51.8544 41.0149C52.2291 40.175 53.1208 39.7144 53.9866 39.9176C54.1934 39.9718 54.4131 39.9989 54.594 39.9989H54.6198C55.589 39.9989 56.261 38.9693 55.8991 38.021L50.9627 24.772C50.3941 23.2411 51.4667 21.5884 53.0433 21.5884H53.1079C54.0641 21.5884 54.917 22.2251 55.2143 23.1869L57.0622 28.9987C57.5015 30.3669 59.3495 30.3534 59.763 28.9851L61.5205 23.214C61.8177 22.2522 62.6706 21.5884 63.6398 21.5884C65.2163 21.5884 66.2889 23.214 65.7461 24.7449Z" fill="white"/>
<path d="M84.0185 27.6575V36.3683C84.0185 37.723 82.9718 38.8068 81.6925 38.8068C80.4002 38.8068 79.3664 37.7095 79.3664 36.3683V29.2019C79.3664 26.8853 78.3197 25.7067 76.5493 25.7067C74.7789 25.7067 73.6417 26.8989 73.6417 29.2019V36.3683C73.6417 37.723 72.595 38.8068 71.3157 38.8068C70.0234 38.8068 68.9896 37.7095 68.9896 36.3683V24.0404C68.9896 22.6857 70.0364 21.602 71.3157 21.602C72.091 21.602 72.7759 21.9948 73.1895 22.6044C73.5513 23.1328 74.2879 23.1463 74.766 22.7264C75.5672 22.0219 76.7819 21.2904 78.4619 21.2904C81.9768 21.2633 84.0185 23.7153 84.0185 27.6575Z" fill="white"/>
<path d="M102.278 24.7991L97.7036 37.0727C97.2384 38.3326 96.0753 39.159 94.7831 39.159C93.4908 39.159 92.3278 38.3326 91.8626 37.0727L87.288 24.7991C86.7065 23.2547 87.8049 21.5884 89.3814 21.5884H89.4719C90.4411 21.5884 91.294 22.2387 91.6041 23.2005L93.2582 28.4161C93.9431 30.5566 95.7135 30.5566 96.3984 28.4161L98.0654 23.1869C98.3755 22.2251 99.2284 21.5884 100.198 21.5884C101.761 21.5884 102.86 23.2547 102.278 24.7991Z" fill="white"/>
<path d="M110.161 24.5552V36.3683C110.161 37.723 109.114 38.8068 107.835 38.8068C106.543 38.8068 105.509 37.7094 105.509 36.3683V24.5552C105.509 23.2005 106.556 22.1167 107.835 22.1167C109.127 22.1167 110.161 23.2005 110.161 24.5552ZM105.522 17.7275C105.522 16.3863 106.556 15.3025 107.835 15.3025C109.114 15.3025 110.148 16.3863 110.148 17.7275C110.148 19.0686 109.114 20.1524 107.835 20.1524C106.556 20.1524 105.522 19.0686 105.522 17.7275Z" fill="white"/>
<path d="M112.901 33.5369V33.4692C112.901 29.7167 115.627 27.9826 119.517 27.9826C120.331 27.9826 121.029 28.0639 121.662 28.1723C122.89 28.389 123.678 27.2511 122.89 26.357C122.282 25.6661 121.352 25.2597 119.995 25.2597C118.935 25.2597 118.057 25.3816 117.191 25.6119C116.196 25.8693 115.175 25.3139 114.865 24.2978C114.529 23.2141 115.11 22.0626 116.144 21.7374C117.41 21.331 118.819 21.0872 120.667 21.0872C123.213 21.0872 125.048 21.7916 126.211 23.0108C127.438 24.2978 127.994 26.1944 127.994 28.4974V36.3006C127.994 37.5063 127.064 38.4816 125.914 38.4816H125.267C124.479 38.4816 124.04 38.0481 123.794 37.6011C123.562 37.1811 123.045 37.1269 122.683 37.425C121.636 38.2784 120.292 38.8203 118.522 38.8203C115.446 38.8068 112.901 36.9508 112.901 33.5369ZM120.783 30.9088C118.884 30.9088 117.721 31.6539 117.721 33.1712C117.721 34.6885 118.716 35.3929 120.137 35.2168C121.933 35 122.941 33.9027 123.174 32.6157C123.368 31.4371 122.179 30.9088 120.783 30.9088Z" fill="white"/>
<path d="M123.148 56.3773H67.0901C64.4539 56.3773 62.3087 54.1285 62.3087 51.3649V51.3378C62.3087 48.5742 64.4539 46.3254 67.0901 46.3254H123.148C125.784 46.3254 127.929 48.5742 127.929 51.3378V51.3649C127.929 54.1421 125.784 56.3773 123.148 56.3773Z" fill="url(#paint1_linear_2998_12869)"/>
<path d="M67.4907 53.2073V49.9696H66.5861C66.3665 49.9696 66.1855 49.7799 66.1855 49.5496C66.1855 49.3058 66.3794 49.1297 66.5861 49.1297H69.3128C69.5325 49.1297 69.7263 49.3193 69.7263 49.5496C69.7263 49.7799 69.5325 49.9696 69.3128 49.9696H68.4082V53.2073C68.4082 53.4647 68.2015 53.6815 67.943 53.6815C67.6975 53.695 67.4907 53.4647 67.4907 53.2073Z" fill="white"/>
<path d="M72.1428 49.0484C73.448 49.0484 74.4043 50.0238 74.4043 51.392C74.4043 52.7603 73.4609 53.7357 72.1428 53.7357C70.8376 53.7357 69.8943 52.7603 69.8943 51.392C69.8943 50.0238 70.8506 49.0484 72.1428 49.0484ZM72.1428 49.9018C71.3416 49.9018 70.8376 50.5386 70.8376 51.392C70.8376 52.2319 71.3545 52.8822 72.1428 52.8822C72.9311 52.8822 73.4609 52.2319 73.4609 51.392C73.4609 50.5386 72.944 49.9018 72.1428 49.9018Z" fill="white"/>
<path d="M78.5912 53.2209C78.5912 53.4783 78.3973 53.695 78.1518 53.695C78.0226 53.695 77.8934 53.6544 77.8029 53.546L76.5753 52.0152L75.3605 53.546C75.283 53.6544 75.1538 53.695 75.0116 53.695C74.7661 53.695 74.5723 53.4783 74.5723 53.2209C74.5723 53.1125 74.5981 53.0041 74.6756 52.9229L76.0067 51.3243L74.7661 49.8477C74.7015 49.7664 74.6627 49.6444 74.6627 49.5496C74.6627 49.2922 74.8566 49.0755 75.1021 49.0755C75.2442 49.0755 75.3605 49.1297 75.451 49.238L76.5882 50.6469L77.7254 49.238C77.8158 49.1161 77.9451 49.0755 78.0743 49.0755C78.3198 49.0755 78.5136 49.2922 78.5136 49.5496C78.5136 49.658 78.4749 49.7664 78.4361 49.8341L77.1697 51.3378L78.5007 52.9364C78.5653 53.0041 78.5912 53.1261 78.5912 53.2209Z" fill="white"/>
<path d="M80.8268 53.546V49.2245C80.8268 49.0619 80.956 48.94 81.0982 48.94C81.2532 48.94 81.3825 49.0755 81.3825 49.2245V53.546C81.3825 53.7086 81.2532 53.8305 81.0982 53.8305C80.9431 53.8305 80.8268 53.695 80.8268 53.546Z" fill="white"/>
<path fill-rule="evenodd" clip-rule="evenodd" d="M85.9829 53.6815C85.6728 53.6815 85.3885 53.6273 85.13 53.5054C84.8716 53.3834 84.639 53.2209 84.4451 53.0041C84.2513 52.7874 84.0962 52.5435 83.9928 52.259C83.8895 51.9745 83.8378 51.663 83.8378 51.3243C83.8378 50.9856 83.8895 50.674 83.9928 50.3895C84.0962 50.105 84.2513 49.8747 84.4451 49.6715C84.639 49.4683 84.8586 49.3193 85.13 49.2109C85.3885 49.1026 85.6728 49.0484 85.9829 49.0484H88.3736V49.8612H85.9829C85.7891 49.8612 85.5952 49.9018 85.4272 49.9696C85.2593 50.0509 85.1171 50.1457 84.9879 50.2812C84.8716 50.4166 84.7682 50.5656 84.7036 50.7553C84.639 50.945 84.6002 51.1346 84.6002 51.3649C84.6002 51.5817 84.639 51.7849 84.7036 51.9745C84.7682 52.1642 84.8716 52.3268 84.9879 52.4622C85.1042 52.5977 85.2593 52.7061 85.4272 52.7738C85.5952 52.8551 85.7762 52.8822 85.9829 52.8822H88.3736V53.695H85.9829V53.6815ZM100.34 49.0484H96.3856V49.8612H100.34V49.0484ZM100.34 50.9314H96.3985V51.7442H100.34V50.9314ZM100.353 52.8822H96.3985V53.695H100.353V52.8822ZM102.459 51.6088H103.028H103.196H104.798C105.07 51.6088 105.276 51.5275 105.431 51.3649C105.586 51.2024 105.664 50.9856 105.664 50.7282C105.664 50.4573 105.586 50.2541 105.431 50.0915C105.276 49.9289 105.07 49.8612 104.798 49.8612H103.196H102.459H101.697V49.0484H104.811C105.07 49.0484 105.289 49.089 105.496 49.1703C105.69 49.2516 105.871 49.36 106 49.4954C106.142 49.6309 106.245 49.807 106.31 50.0102C106.375 50.2134 106.413 50.4437 106.413 50.7011C106.413 50.9585 106.375 51.1753 106.31 51.392C106.233 51.5952 106.129 51.7713 106 51.9204C105.858 52.0694 105.69 52.1913 105.496 52.2726C105.289 52.3539 105.07 52.3945 104.811 52.3945H103.209H103.041H102.472V53.6815H101.71V52.3945V51.6088H102.459ZM94.305 53.6815L93.646 52.5164L93.2712 51.8526L92.2891 50.1186L90.2732 53.6815H89.3945L91.9402 49.238C91.979 49.1568 92.0436 49.089 92.0953 49.0484C92.1599 49.0077 92.2245 48.9806 92.315 48.9806C92.4054 48.9806 92.47 49.0077 92.5346 49.0484C92.5993 49.089 92.6509 49.1568 92.6897 49.238L95.2355 53.6815H94.305ZM109.076 53.6815V49.8612H107.396V49.0484H111.531V49.8612H109.851V53.6815H109.076ZM114.645 53.6815C114.335 53.6815 114.051 53.6273 113.792 53.5054C113.534 53.3834 113.301 53.2209 113.107 53.0041C112.913 52.7874 112.758 52.5435 112.655 52.259C112.552 51.9745 112.5 51.663 112.5 51.3243C112.5 50.9856 112.552 50.674 112.655 50.3895C112.758 50.105 112.913 49.8747 113.107 49.6715C113.301 49.4683 113.521 49.3193 113.792 49.2109C114.051 49.1026 114.335 49.0484 114.645 49.0484H115.718C116.041 49.0484 116.325 49.1026 116.596 49.2109C116.868 49.3193 117.087 49.4819 117.281 49.6715C117.475 49.8747 117.617 50.105 117.721 50.3895C117.824 50.674 117.876 50.9721 117.876 51.3107C117.876 51.6494 117.824 51.961 117.721 52.2455C117.617 52.53 117.462 52.7874 117.268 52.9906C117.075 53.2073 116.842 53.3699 116.583 53.4918C116.325 53.6137 116.028 53.6679 115.718 53.6679H114.645V53.6815ZM115.718 52.8822C115.924 52.8822 116.105 52.8416 116.273 52.7738C116.441 52.6925 116.596 52.5977 116.713 52.4622C116.842 52.3268 116.932 52.1642 116.997 51.9745C117.062 51.7849 117.1 51.5817 117.1 51.3649C117.1 51.1482 117.062 50.945 116.997 50.7689C116.932 50.5792 116.829 50.4302 116.713 50.2947C116.583 50.1592 116.441 50.0644 116.273 49.9831C116.105 49.9018 115.912 49.8747 115.718 49.8747H114.645C114.451 49.8747 114.257 49.9154 114.089 49.9831C113.921 50.0644 113.779 50.1592 113.65 50.2947C113.534 50.4302 113.43 50.5792 113.366 50.7689C113.301 50.9585 113.262 51.1482 113.262 51.3785C113.262 51.5952 113.301 51.7984 113.366 51.9881C113.43 52.1778 113.534 52.3403 113.65 52.4758C113.766 52.6113 113.921 52.7196 114.089 52.7874C114.257 52.8687 114.438 52.8958 114.645 52.8958H115.718V52.8822ZM123.045 53.6815L121.184 51.7849L119.349 53.6815H118.341L120.719 51.2701L118.522 49.0484H119.582L121.261 50.7689L122.916 49.0484H123.924L121.727 51.2701L124.117 53.6815H123.045Z" fill="white"/>
<defs>
<linearGradient id="paint0_linear_2998_12869" x1="23.4254" y1="0.365662" x2="23.4254" y2="52.1144" gradientUnits="userSpaceOnUse">
<stop stop-color="#80C244"/>
<stop offset="1" stop-color="#00AD4D"/>
</linearGradient>
<linearGradient id="paint1_linear_2998_12869" x1="62.3122" y1="51.3567" x2="127.931" y2="51.3567" gradientUnits="userSpaceOnUse">
<stop stop-color="#80C244"/>
<stop offset="1" stop-color="#00AD4D"/>
</linearGradient>
</defs>
</svg>
