<?xml version="1.0" encoding="utf-8"?>
<!-- Generator: Adobe Illustrator 28.0.0, SVG Export Plug-In . SVG Version: 6.00 Build 0)  -->
<svg version="1.1" id="Camada_1" xmlns="http://www.w3.org/2000/svg" xmlns:xlink="http://www.w3.org/1999/xlink" x="0px" y="0px"
	 viewBox="0 0 1031.2 600" style="enable-background:new 0 0 1031.2 600;" xml:space="preserve">
<style type="text/css">
	.st0{fill:url(#SVGID_1_);}
	.st1{fill:none;}
	.st2{fill:url(#SVGID_00000140003907536706265580000010480118837836337049_);}
	.st3{fill:url(#SVGID_00000016057510989295865330000016180531763909343909_);}
	.st4{fill:url(#SVGID_00000159442723380638033600000015286300597228823728_);}
</style>
<g>
	<g>
		<linearGradient id="SVGID_1_" gradientUnits="userSpaceOnUse" x1="200.1039" y1="87.4411" x2="200.1039" y2="469.4325">
			<stop  offset="0" style="stop-color:#80C244"/>
			<stop  offset="1" style="stop-color:#00AD4D"/>
		</linearGradient>
		<path class="st0" d="M250.6,469.4c-12,0-23.9-4-33.7-11.6l-1.4-1.1c-18.6-14.5-25.8-39.2-17.9-61.4l23.7-67
			c6.7-19.1-2-34.6-12.5-42.8c-10.5-8.2-27.6-12.9-44.6-1.8L104.7,323C85,336,59.4,334.9,40.9,320.5c-14.3-11.1-22.1-28.6-20.9-46.6
			c1.2-18,11.1-34.3,26.7-43.5L269.9,97.8c26.1-15.5,58.4-13.4,82.3,5.2c23.9,18.7,33.8,49.5,25.1,78.5l-8.1,27
			c-1.3,4.4-5.9,6.8-10.3,5.6c-4.4-1.3-6.9-5.9-5.6-10.3l8.1-27c6.7-22.5-0.9-46.3-19.4-60.8c-18.5-14.4-43.5-16-63.7-4.1L55,244.6
			c-11,6.5-17.8,17.6-18.6,30.4c-0.8,12.8,4.5,24.7,14.6,32.5c12.9,10.1,30.8,10.8,44.5,1.8l59.5-39.3c20-13.2,45-12.1,63.8,2.6
			c18.8,14.7,25.8,38.8,17.9,61.3l-23.7,67c-5.5,15.5-0.4,32.7,12.5,42.9l1.4,1.1c10.1,7.9,22.9,10.2,35.1,6.3
			c12.2-3.9,21.3-13.2,24.9-25.4l8.6-28.7c1.3-4.4,5.9-6.8,10.3-5.6c4.4,1.3,6.9,5.9,5.6,10.3l-8.6,28.7
			c-5.2,17.3-18.5,31-35.7,36.5C261.8,468.6,256.2,469.4,250.6,469.4z"/>
	</g>
	<g>
		<g>
			<path d="M395.2,329.4v0.5c0,25.9-18.2,41.3-48.8,41.3c-14.1,0-28.3-3.6-41.1-10.5c-3.8-2-6.6-5.6-7.7-9.8
				c-1.1-4.1-0.4-8.4,2-11.9c4.2-6.5,12.8-8.8,19.5-5.2c9.9,5.3,19.7,8.1,28.3,8.1c9,0,13.9-3,13.9-8.3v-0.5c0-6-9-8.7-20.4-12.1
				c-1.6-0.5-3.2-0.9-4.8-1.4c-33.5-9.8-38-25-38-38.5v-0.5c0-24.3,18.8-40.6,46.7-40.6c11,0,22.5,2.5,33.4,7.2
				c3.9,1.7,6.9,4.9,8.3,9c1.4,4.1,1,8.5-1.1,12.3c-3.9,7-12.2,9.8-19.4,6.6c-8.4-3.7-16-5.7-21.9-5.7c-7.4,0-12,2.9-12,7.6v0.5
				c0,5.6,9.6,8.9,20.8,12.6l3.9,1.3C375.3,297.6,395.2,306.2,395.2,329.4z"/>
		</g>
		<g>
			<path d="M527.6,267.4l-40.1,106.9c-9.7,25.8-20.1,35.6-41.7,35.6c-6.1,0-11.5-0.7-16.5-2.1c-8.7-2.4-13-12.1-9.2-20.3
				c2.9-6.2,9.8-9.6,16.5-8.1c1.6,0.4,3.3,0.6,4.7,0.6h0.2c7.5,0,12.7-7.6,9.9-14.6l-38.2-97.8c-4.4-11.3,3.9-23.5,16.1-23.5h0.5
				c7.4,0,14,4.7,16.3,11.8l14.3,42.9c3.4,10.1,17.7,10,20.9-0.1l13.6-42.6c2.3-7.1,8.9-12,16.4-12
				C523.5,244.1,531.8,256.1,527.6,267.4z"/>
		</g>
		<g>
			<path d="M669,288.9v64.3c0,10-8.1,18-18,18c-10,0-18-8.1-18-18v-52.9c0-17.1-8.1-25.8-21.8-25.8c-13.7,0-22.5,8.8-22.5,25.8v52.9
				c0,10-8.1,18-18,18c-10,0-18-8.1-18-18v-91c0-10,8.1-18,18-18c6,0,11.3,2.9,14.5,7.4c2.8,3.9,8.5,4,12.2,0.9
				c6.2-5.2,15.6-10.6,28.6-10.6C653.2,241.7,669,259.8,669,288.9z"/>
		</g>
		<g>
			<path d="M810.3,267.8l-35.4,90.6c-3.6,9.3-12.6,15.4-22.6,15.4c-10,0-19-6.1-22.6-15.4l-35.4-90.6c-4.5-11.4,4-23.7,16.2-23.7
				h0.7c7.5,0,14.1,4.8,16.5,11.9l12.8,38.5c5.3,15.8,19,15.8,24.3,0l12.9-38.6c2.4-7.1,9-11.8,16.5-11.8
				C806.3,244.1,814.8,256.4,810.3,267.8z"/>
		</g>
		<g>
			<path d="M871.3,266v87.2c0,10-8.1,18-18,18c-10,0-18-8.1-18-18V266c0-10,8.1-18,18-18C863.3,248,871.3,256,871.3,266z
				 M835.4,215.6c0-9.9,8-17.9,17.9-17.9s17.9,8,17.9,17.9c0,9.9-8,17.9-17.9,17.9S835.4,225.5,835.4,215.6z"/>
		</g>
		<g>
			<path d="M892.5,332.3v-0.5c0-27.7,21.1-40.5,51.2-40.5c6.3,0,11.7,0.6,16.6,1.4c9.5,1.6,15.6-6.8,9.5-13.4
				c-4.7-5.1-11.9-8.1-22.4-8.1c-8.2,0-15,0.9-21.7,2.6c-7.7,1.9-15.6-2.2-18-9.7c-2.6-8,1.9-16.5,9.9-18.9c9.8-3,20.7-4.8,35-4.8
				c19.7,0,33.9,5.2,42.9,14.2c9.5,9.5,13.8,23.5,13.8,40.5v57.6c0,8.9-7.2,16.1-16.1,16.1h-5c-6.1,0-9.5-3.2-11.4-6.5
				c-1.8-3.1-5.8-3.5-8.6-1.3c-8.1,6.3-18.5,10.3-32.2,10.3C912.2,371.2,892.5,357.5,892.5,332.3z M953.5,312.9
				c-14.7,0-23.7,5.5-23.7,16.7s7.7,16.4,18.7,15.1c13.9-1.6,21.7-9.7,23.5-19.2C973.5,316.8,964.3,312.9,953.5,312.9z"/>
		</g>
	</g>
	<line class="st1" x1="814.4" y1="481.2" x2="814.4" y2="502.2"/>
	<g>
		
			<linearGradient id="SVGID_00000107562262341930350300000009910074582742249094_" gradientUnits="userSpaceOnUse" x1="895.3128" y1="463.9268" x2="925.0642" y2="463.9268">
			<stop  offset="0" style="stop-color:#80C244"/>
			<stop  offset="1" style="stop-color:#00AD4D"/>
		</linearGradient>
		<path style="fill:url(#SVGID_00000107562262341930350300000009910074582742249094_);" d="M922,455.9c-1-1-2.1-1.7-3.4-2.3
			c-1.3-0.6-2.8-0.8-4.3-0.8H906c-1.5,0-3,0.3-4.3,0.8c-1.3,0.6-2.4,1.3-3.4,2.3c-0.9,1-1.7,2.1-2.2,3.5c-0.5,1.4-0.8,2.8-0.8,4.5
			c0,1.6,0.3,3.1,0.8,4.5c0.5,1.4,1.3,2.6,2.2,3.6c0.9,1,2.1,1.8,3.4,2.3c1.3,0.6,2.7,0.8,4.3,0.8h8.3c1.6,0,3-0.3,4.3-0.8
			c1.3-0.6,2.5-1.3,3.4-2.3c1-1,1.7-2.2,2.2-3.6c0.5-1.4,0.8-2.9,0.8-4.5c0-1.6-0.3-3.1-0.8-4.4C923.7,458,923,456.9,922,455.9z"/>
		
			<linearGradient id="SVGID_00000033340349826826449360000004911590848802306992_" gradientUnits="userSpaceOnUse" x1="567.0283" y1="464.0835" x2="587.2793" y2="464.0835">
			<stop  offset="0" style="stop-color:#80C244"/>
			<stop  offset="1" style="stop-color:#00AD4D"/>
		</linearGradient>
		<path style="fill:url(#SVGID_00000033340349826826449360000004911590848802306992_);" d="M577.1,453.1c-6.2,0-10.1,4.7-10.1,11
			c0,6.2,4,11,10.1,11s10.2-4.8,10.2-11C587.3,457.8,583.3,453.1,577.1,453.1z"/>
		
			<linearGradient id="SVGID_00000119820509046319487350000001954209565958881408_" gradientUnits="userSpaceOnUse" x1="501.0266" y1="463.8393" x2="1008.8109" y2="463.8393">
			<stop  offset="0" style="stop-color:#80C244"/>
			<stop  offset="1" style="stop-color:#00AD4D"/>
		</linearGradient>
		<path style="fill:url(#SVGID_00000119820509046319487350000001954209565958881408_);" d="M971.8,426.8H538c-20.4,0-37,16.6-37,37
			v0.2c0,20.4,16.6,37,37,37h433.8c20.4,0,37-16.6,37-37v-0.2C1008.8,443.3,992.2,426.8,971.8,426.8z M555.2,453.6h-7v23.9
			c0,1.9-1.6,3.5-3.6,3.5c-2,0-3.6-1.6-3.6-3.5v-23.9h-7c-1.7,0-3.1-1.4-3.1-3.1c0-1.8,1.5-3.1,3.1-3.1h21.1c1.7,0,3.2,1.4,3.2,3.1
			C558.4,452.2,556.9,453.6,555.2,453.6z M577.1,481.3c-10.1,0-17.4-7.2-17.4-17.3c0-10,7.4-17.3,17.4-17.3
			c10.1,0,17.5,7.2,17.5,17.3C594.6,474.1,587.2,481.3,577.1,481.3z M623.6,481.1c-1,0-2-0.3-2.7-1.1l-9.5-11.3L602,480
			c-0.6,0.8-1.6,1.1-2.7,1.1c-1.9,0-3.4-1.6-3.4-3.5c0-0.8,0.2-1.6,0.8-2.2l10.3-11.8l-9.6-10.9c-0.5-0.6-0.8-1.5-0.8-2.2
			c0-1.9,1.5-3.5,3.4-3.5c1.1,0,2,0.4,2.7,1.2l8.8,10.4l8.8-10.4c0.7-0.9,1.7-1.2,2.7-1.2c1.9,0,3.4,1.6,3.4,3.5
			c0,0.8-0.3,1.6-0.6,2.1l-9.8,11.1l10.3,11.8c0.6,0.7,0.8,1.5,0.8,2.2C627,479.5,625.5,481.1,623.6,481.1z M648.5,480
			c0,1.2-1,2.1-2.2,2.1c-1.2,0-2.1-0.9-2.1-2.1v-31.9c0-1.2,1-2.1,2.1-2.1c1.2,0,2.2,1,2.2,2.1V480z M702.8,452.8h-18.5
			c-1.5,0-3,0.3-4.3,0.8c-1.3,0.6-2.4,1.3-3.4,2.3c-0.9,1-1.7,2.1-2.2,3.5c-0.5,1.4-0.8,2.8-0.8,4.5c0,1.6,0.3,3.1,0.8,4.5
			c0.5,1.4,1.3,2.6,2.2,3.6c0.9,1,2.1,1.8,3.4,2.3c1.3,0.6,2.7,0.8,4.3,0.8h18.5v6h-18.5c-2.4,0-4.6-0.4-6.6-1.3
			c-2-0.9-3.8-2.1-5.3-3.7c-1.5-1.6-2.7-3.4-3.5-5.5c-0.8-2.1-1.2-4.4-1.2-6.9c0-2.5,0.4-4.8,1.2-6.9c0.8-2.1,2-3.8,3.5-5.3
			c1.5-1.5,3.2-2.6,5.3-3.4c2-0.8,4.2-1.2,6.6-1.2h18.5V452.8z M748.6,481l-5.1-8.6l-2.9-4.9l-7.6-12.8L717.4,481h-6.8l19.7-32.8
			c0.3-0.6,0.8-1.1,1.2-1.4c0.5-0.3,1-0.5,1.7-0.5c0.7,0,1.2,0.2,1.7,0.5c0.5,0.3,0.9,0.8,1.2,1.4l19.7,32.8H748.6z M764.7,446.8
			h30.6v6h-30.6V446.8z M795.3,460.7v6h-30.5v-6H795.3z M795.4,481h-30.6v-6h30.6V481z M841.5,464.1c-0.6,1.5-1.4,2.8-2.4,3.9
			c-1.1,1.1-2.4,2-3.9,2.6c-1.6,0.6-3.3,0.9-5.3,0.9h-12.4h-1.3h-4.4v9.5h-5.9l0-9.5v-5.8h5.9h4.4h1.3h12.4c2.1,0,3.7-0.6,4.9-1.8
			c1.2-1.2,1.8-2.8,1.8-4.7c0-2-0.6-3.5-1.8-4.7c-1.2-1.2-2.8-1.7-4.9-1.7h-12.4h-5.7h-5.9v-6h24.1c2,0,3.7,0.3,5.3,0.9
			c1.5,0.6,2.9,1.4,3.9,2.4c1.1,1,1.9,2.3,2.4,3.8s0.8,3.2,0.8,5.1C842.4,460.9,842.1,462.6,841.5,464.1z M881.9,452.8h-13V481h-6
			v-28.2h-13v-6h32V452.8z M929.8,470.5c-0.8,2.1-2,4-3.5,5.5c-1.5,1.6-3.3,2.8-5.3,3.7c-2,0.9-4.3,1.3-6.7,1.3H906
			c-2.4,0-4.6-0.4-6.6-1.3c-2-0.9-3.8-2.1-5.3-3.7c-1.5-1.6-2.7-3.4-3.5-5.5c-0.8-2.1-1.2-4.4-1.2-6.9c0-2.5,0.4-4.8,1.2-6.9
			c0.8-2.1,2-3.8,3.5-5.3c1.5-1.5,3.2-2.6,5.3-3.4c2-0.8,4.2-1.2,6.6-1.2h8.3c2.5,0,4.7,0.4,6.8,1.2c2.1,0.8,3.8,2,5.3,3.4
			c1.5,1.5,2.6,3.2,3.4,5.3c0.8,2.1,1.2,4.3,1.2,6.8C931,466,930.6,468.4,929.8,470.5z M971,481l-14.4-14l-14.2,14h-7.8l18.4-17.8
			l-17-16.4h8.2l13,12.7l12.8-12.7h7.8l-17,16.4l18.5,17.8H971z"/>
	</g>
</g>
</svg>
